<?xml version="1.0" encoding="utf-8" standalone="no"?>
<!DOCTYPE svg PUBLIC "-//W3C//DTD SVG 1.1//EN"
  "http://www.w3.org/Graphics/SVG/1.1/DTD/svg11.dtd">
<svg xmlns:xlink="http://www.w3.org/1999/xlink" width="1008pt" height="720pt" viewBox="0 0 1008 720" xmlns="http://www.w3.org/2000/svg" version="1.1">
 <metadata>
  <rdf:RDF xmlns:dc="http://purl.org/dc/elements/1.1/" xmlns:cc="http://creativecommons.org/ns#" xmlns:rdf="http://www.w3.org/1999/02/22-rdf-syntax-ns#">
   <cc:Work>
    <dc:type rdf:resource="http://purl.org/dc/dcmitype/StillImage"/>
    <dc:date>2021-12-03T21:04:24.654358</dc:date>
    <dc:format>image/svg+xml</dc:format>
    <dc:creator>
     <cc:Agent>
      <dc:title>Matplotlib v3.5.0, https://matplotlib.org/</dc:title>
     </cc:Agent>
    </dc:creator>
   </cc:Work>
  </rdf:RDF>
 </metadata>
 <defs>
  <style type="text/css">*{stroke-linejoin: round; stroke-linecap: butt}</style>
 </defs>
 <g id="figure_1">
  <g id="patch_1">
   <path d="M 0 720 
L 1008 720 
L 1008 0 
L 0 0 
L 0 720 
z
" style="fill: none"/>
  </g>
  <g id="axes_1">
   <g id="patch_2">
    <path d="M 126 333.490909 
L 481.090909 333.490909 
L 481.090909 86.4 
L 126 86.4 
z
" style="fill: #ffffff"/>
   </g>
   <g id="patch_3">
    <path d="M 126 322.259504 
L 194.695941 322.259504 
L 194.695941 308.820216 
L 126 308.820216 
z
" clip-path="url(#p4268cac49f)" style="fill: #ffa500"/>
   </g>
   <g id="patch_4">
    <path d="M 126 303.060521 
L 213.09727 303.060521 
L 213.09727 289.621233 
L 126 289.621233 
z
" clip-path="url(#p4268cac49f)" style="fill: #ffa500"/>
   </g>
   <g id="patch_5">
    <path d="M 126 283.861538 
L 222.739426 283.861538 
L 222.739426 270.42225 
L 126 270.42225 
z
" clip-path="url(#p4268cac49f)" style="fill: #ffa500"/>
   </g>
   <g id="patch_6">
    <path d="M 126 264.662556 
L 222.916022 264.662556 
L 222.916022 251.223268 
L 126 251.223268 
z
" clip-path="url(#p4268cac49f)" style="fill: #ffa500"/>
   </g>
   <g id="patch_7">
    <path d="M 126 245.463573 
L 224.470069 245.463573 
L 224.470069 232.024285 
L 126 232.024285 
z
" clip-path="url(#p4268cac49f)" style="fill: #ffa500"/>
   </g>
   <g id="patch_8">
    <path d="M 126 226.26459 
L 231.392642 226.26459 
L 231.392642 212.825302 
L 126 212.825302 
z
" clip-path="url(#p4268cac49f)" style="fill: #ffa500"/>
   </g>
   <g id="patch_9">
    <path d="M 126 207.065607 
L 233.158604 207.065607 
L 233.158604 193.626319 
L 126 193.626319 
z
" clip-path="url(#p4268cac49f)" style="fill: #ffa500"/>
   </g>
   <g id="patch_10">
    <path d="M 126 187.866624 
L 246.756516 187.866624 
L 246.756516 174.427336 
L 126 174.427336 
z
" clip-path="url(#p4268cac49f)" style="fill: #ffa500"/>
   </g>
   <g id="patch_11">
    <path d="M 126 168.667641 
L 453.26817 168.667641 
L 453.26817 155.228353 
L 126 155.228353 
z
" clip-path="url(#p4268cac49f)" style="fill: #ffa500"/>
   </g>
   <g id="patch_12">
    <path d="M 126 149.468659 
L 458.000949 149.468659 
L 458.000949 136.029371 
L 126 136.029371 
z
" clip-path="url(#p4268cac49f)" style="fill: #ffa500"/>
   </g>
   <g id="patch_13">
    <path d="M 126 130.269676 
L 460.33202 130.269676 
L 460.33202 116.830388 
L 126 116.830388 
z
" clip-path="url(#p4268cac49f)" style="fill: #ffa500"/>
   </g>
   <g id="patch_14">
    <path d="M 126 111.070693 
L 464.181818 111.070693 
L 464.181818 97.631405 
L 126 97.631405 
z
" clip-path="url(#p4268cac49f)" style="fill: #ffa500"/>
   </g>
   <g id="matplotlib.axis_1"/>
   <g id="matplotlib.axis_2">
    <g id="ytick_1">
     <g id="line2d_1">
      <defs>
       <path id="m4a1da755a1" d="M 0 0 
L -3.5 0 
" style="stroke: #000000; stroke-width: 0.8"/>
      </defs>
      <g>
       <use xlink:href="#m4a1da755a1" x="126" y="315.53986" style="stroke: #000000; stroke-width: 0.8"/>
      </g>
     </g>
     <g id="text_1">
      <!-- polar -->
      <g transform="translate(83.321875 320.858766)scale(0.14 -0.14)">
       <defs>
        <path id="DejaVuSans-70" d="M 1159 525 
L 1159 -1331 
L 581 -1331 
L 581 3500 
L 1159 3500 
L 1159 2969 
Q 1341 3281 1617 3432 
Q 1894 3584 2278 3584 
Q 2916 3584 3314 3078 
Q 3713 2572 3713 1747 
Q 3713 922 3314 415 
Q 2916 -91 2278 -91 
Q 1894 -91 1617 61 
Q 1341 213 1159 525 
z
M 3116 1747 
Q 3116 2381 2855 2742 
Q 2594 3103 2138 3103 
Q 1681 3103 1420 2742 
Q 1159 2381 1159 1747 
Q 1159 1113 1420 752 
Q 1681 391 2138 391 
Q 2594 391 2855 752 
Q 3116 1113 3116 1747 
z
" transform="scale(0.015625)"/>
        <path id="DejaVuSans-6f" d="M 1959 3097 
Q 1497 3097 1228 2736 
Q 959 2375 959 1747 
Q 959 1119 1226 758 
Q 1494 397 1959 397 
Q 2419 397 2687 759 
Q 2956 1122 2956 1747 
Q 2956 2369 2687 2733 
Q 2419 3097 1959 3097 
z
M 1959 3584 
Q 2709 3584 3137 3096 
Q 3566 2609 3566 1747 
Q 3566 888 3137 398 
Q 2709 -91 1959 -91 
Q 1206 -91 779 398 
Q 353 888 353 1747 
Q 353 2609 779 3096 
Q 1206 3584 1959 3584 
z
" transform="scale(0.015625)"/>
        <path id="DejaVuSans-6c" d="M 603 4863 
L 1178 4863 
L 1178 0 
L 603 0 
L 603 4863 
z
" transform="scale(0.015625)"/>
        <path id="DejaVuSans-61" d="M 2194 1759 
Q 1497 1759 1228 1600 
Q 959 1441 959 1056 
Q 959 750 1161 570 
Q 1363 391 1709 391 
Q 2188 391 2477 730 
Q 2766 1069 2766 1631 
L 2766 1759 
L 2194 1759 
z
M 3341 1997 
L 3341 0 
L 2766 0 
L 2766 531 
Q 2569 213 2275 61 
Q 1981 -91 1556 -91 
Q 1019 -91 701 211 
Q 384 513 384 1019 
Q 384 1609 779 1909 
Q 1175 2209 1959 2209 
L 2766 2209 
L 2766 2266 
Q 2766 2663 2505 2880 
Q 2244 3097 1772 3097 
Q 1472 3097 1187 3025 
Q 903 2953 641 2809 
L 641 3341 
Q 956 3463 1253 3523 
Q 1550 3584 1831 3584 
Q 2591 3584 2966 3190 
Q 3341 2797 3341 1997 
z
" transform="scale(0.015625)"/>
        <path id="DejaVuSans-72" d="M 2631 2963 
Q 2534 3019 2420 3045 
Q 2306 3072 2169 3072 
Q 1681 3072 1420 2755 
Q 1159 2438 1159 1844 
L 1159 0 
L 581 0 
L 581 3500 
L 1159 3500 
L 1159 2956 
Q 1341 3275 1631 3429 
Q 1922 3584 2338 3584 
Q 2397 3584 2469 3576 
Q 2541 3569 2628 3553 
L 2631 2963 
z
" transform="scale(0.015625)"/>
       </defs>
       <use xlink:href="#DejaVuSans-70"/>
       <use xlink:href="#DejaVuSans-6f" x="63.476562"/>
       <use xlink:href="#DejaVuSans-6c" x="124.658203"/>
       <use xlink:href="#DejaVuSans-61" x="152.441406"/>
       <use xlink:href="#DejaVuSans-72" x="213.720703"/>
      </g>
     </g>
    </g>
    <g id="ytick_2">
     <g id="line2d_2">
      <g>
       <use xlink:href="#m4a1da755a1" x="126" y="296.340877" style="stroke: #000000; stroke-width: 0.8"/>
      </g>
     </g>
     <g id="text_2">
      <!-- visualMap -->
      <g transform="translate(48.643437 301.659784)scale(0.14 -0.14)">
       <defs>
        <path id="DejaVuSans-76" d="M 191 3500 
L 800 3500 
L 1894 563 
L 2988 3500 
L 3597 3500 
L 2284 0 
L 1503 0 
L 191 3500 
z
" transform="scale(0.015625)"/>
        <path id="DejaVuSans-69" d="M 603 3500 
L 1178 3500 
L 1178 0 
L 603 0 
L 603 3500 
z
M 603 4863 
L 1178 4863 
L 1178 4134 
L 603 4134 
L 603 4863 
z
" transform="scale(0.015625)"/>
        <path id="DejaVuSans-73" d="M 2834 3397 
L 2834 2853 
Q 2591 2978 2328 3040 
Q 2066 3103 1784 3103 
Q 1356 3103 1142 2972 
Q 928 2841 928 2578 
Q 928 2378 1081 2264 
Q 1234 2150 1697 2047 
L 1894 2003 
Q 2506 1872 2764 1633 
Q 3022 1394 3022 966 
Q 3022 478 2636 193 
Q 2250 -91 1575 -91 
Q 1294 -91 989 -36 
Q 684 19 347 128 
L 347 722 
Q 666 556 975 473 
Q 1284 391 1588 391 
Q 1994 391 2212 530 
Q 2431 669 2431 922 
Q 2431 1156 2273 1281 
Q 2116 1406 1581 1522 
L 1381 1569 
Q 847 1681 609 1914 
Q 372 2147 372 2553 
Q 372 3047 722 3315 
Q 1072 3584 1716 3584 
Q 2034 3584 2315 3537 
Q 2597 3491 2834 3397 
z
" transform="scale(0.015625)"/>
        <path id="DejaVuSans-75" d="M 544 1381 
L 544 3500 
L 1119 3500 
L 1119 1403 
Q 1119 906 1312 657 
Q 1506 409 1894 409 
Q 2359 409 2629 706 
Q 2900 1003 2900 1516 
L 2900 3500 
L 3475 3500 
L 3475 0 
L 2900 0 
L 2900 538 
Q 2691 219 2414 64 
Q 2138 -91 1772 -91 
Q 1169 -91 856 284 
Q 544 659 544 1381 
z
M 1991 3584 
L 1991 3584 
z
" transform="scale(0.015625)"/>
        <path id="DejaVuSans-4d" d="M 628 4666 
L 1569 4666 
L 2759 1491 
L 3956 4666 
L 4897 4666 
L 4897 0 
L 4281 0 
L 4281 4097 
L 3078 897 
L 2444 897 
L 1241 4097 
L 1241 0 
L 628 0 
L 628 4666 
z
" transform="scale(0.015625)"/>
       </defs>
       <use xlink:href="#DejaVuSans-76"/>
       <use xlink:href="#DejaVuSans-69" x="59.179688"/>
       <use xlink:href="#DejaVuSans-73" x="86.962891"/>
       <use xlink:href="#DejaVuSans-75" x="139.0625"/>
       <use xlink:href="#DejaVuSans-61" x="202.441406"/>
       <use xlink:href="#DejaVuSans-6c" x="263.720703"/>
       <use xlink:href="#DejaVuSans-4d" x="291.503906"/>
       <use xlink:href="#DejaVuSans-61" x="377.783203"/>
       <use xlink:href="#DejaVuSans-70" x="439.0625"/>
      </g>
     </g>
    </g>
    <g id="ytick_3">
     <g id="line2d_3">
      <g>
       <use xlink:href="#m4a1da755a1" x="126" y="277.141894" style="stroke: #000000; stroke-width: 0.8"/>
      </g>
     </g>
     <g id="text_3">
      <!-- timeline -->
      <g transform="translate(62.105312 282.460801)scale(0.14 -0.14)">
       <defs>
        <path id="DejaVuSans-74" d="M 1172 4494 
L 1172 3500 
L 2356 3500 
L 2356 3053 
L 1172 3053 
L 1172 1153 
Q 1172 725 1289 603 
Q 1406 481 1766 481 
L 2356 481 
L 2356 0 
L 1766 0 
Q 1100 0 847 248 
Q 594 497 594 1153 
L 594 3053 
L 172 3053 
L 172 3500 
L 594 3500 
L 594 4494 
L 1172 4494 
z
" transform="scale(0.015625)"/>
        <path id="DejaVuSans-6d" d="M 3328 2828 
Q 3544 3216 3844 3400 
Q 4144 3584 4550 3584 
Q 5097 3584 5394 3201 
Q 5691 2819 5691 2113 
L 5691 0 
L 5113 0 
L 5113 2094 
Q 5113 2597 4934 2840 
Q 4756 3084 4391 3084 
Q 3944 3084 3684 2787 
Q 3425 2491 3425 1978 
L 3425 0 
L 2847 0 
L 2847 2094 
Q 2847 2600 2669 2842 
Q 2491 3084 2119 3084 
Q 1678 3084 1418 2786 
Q 1159 2488 1159 1978 
L 1159 0 
L 581 0 
L 581 3500 
L 1159 3500 
L 1159 2956 
Q 1356 3278 1631 3431 
Q 1906 3584 2284 3584 
Q 2666 3584 2933 3390 
Q 3200 3197 3328 2828 
z
" transform="scale(0.015625)"/>
        <path id="DejaVuSans-65" d="M 3597 1894 
L 3597 1613 
L 953 1613 
Q 991 1019 1311 708 
Q 1631 397 2203 397 
Q 2534 397 2845 478 
Q 3156 559 3463 722 
L 3463 178 
Q 3153 47 2828 -22 
Q 2503 -91 2169 -91 
Q 1331 -91 842 396 
Q 353 884 353 1716 
Q 353 2575 817 3079 
Q 1281 3584 2069 3584 
Q 2775 3584 3186 3129 
Q 3597 2675 3597 1894 
z
M 3022 2063 
Q 3016 2534 2758 2815 
Q 2500 3097 2075 3097 
Q 1594 3097 1305 2825 
Q 1016 2553 972 2059 
L 3022 2063 
z
" transform="scale(0.015625)"/>
        <path id="DejaVuSans-6e" d="M 3513 2113 
L 3513 0 
L 2938 0 
L 2938 2094 
Q 2938 2591 2744 2837 
Q 2550 3084 2163 3084 
Q 1697 3084 1428 2787 
Q 1159 2491 1159 1978 
L 1159 0 
L 581 0 
L 581 3500 
L 1159 3500 
L 1159 2956 
Q 1366 3272 1645 3428 
Q 1925 3584 2291 3584 
Q 2894 3584 3203 3211 
Q 3513 2838 3513 2113 
z
" transform="scale(0.015625)"/>
       </defs>
       <use xlink:href="#DejaVuSans-74"/>
       <use xlink:href="#DejaVuSans-69" x="39.208984"/>
       <use xlink:href="#DejaVuSans-6d" x="66.992188"/>
       <use xlink:href="#DejaVuSans-65" x="164.404297"/>
       <use xlink:href="#DejaVuSans-6c" x="225.927734"/>
       <use xlink:href="#DejaVuSans-69" x="253.710938"/>
       <use xlink:href="#DejaVuSans-6e" x="281.494141"/>
       <use xlink:href="#DejaVuSans-65" x="344.873047"/>
      </g>
     </g>
    </g>
    <g id="ytick_4">
     <g id="line2d_4">
      <g>
       <use xlink:href="#m4a1da755a1" x="126" y="257.942912" style="stroke: #000000; stroke-width: 0.8"/>
      </g>
     </g>
     <g id="text_4">
      <!-- dataZoom -->
      <g transform="translate(47.105625 263.261818)scale(0.14 -0.14)">
       <defs>
        <path id="DejaVuSans-64" d="M 2906 2969 
L 2906 4863 
L 3481 4863 
L 3481 0 
L 2906 0 
L 2906 525 
Q 2725 213 2448 61 
Q 2172 -91 1784 -91 
Q 1150 -91 751 415 
Q 353 922 353 1747 
Q 353 2572 751 3078 
Q 1150 3584 1784 3584 
Q 2172 3584 2448 3432 
Q 2725 3281 2906 2969 
z
M 947 1747 
Q 947 1113 1208 752 
Q 1469 391 1925 391 
Q 2381 391 2643 752 
Q 2906 1113 2906 1747 
Q 2906 2381 2643 2742 
Q 2381 3103 1925 3103 
Q 1469 3103 1208 2742 
Q 947 2381 947 1747 
z
" transform="scale(0.015625)"/>
        <path id="DejaVuSans-5a" d="M 359 4666 
L 4025 4666 
L 4025 4184 
L 1075 531 
L 4097 531 
L 4097 0 
L 288 0 
L 288 481 
L 3238 4134 
L 359 4134 
L 359 4666 
z
" transform="scale(0.015625)"/>
       </defs>
       <use xlink:href="#DejaVuSans-64"/>
       <use xlink:href="#DejaVuSans-61" x="63.476562"/>
       <use xlink:href="#DejaVuSans-74" x="124.755859"/>
       <use xlink:href="#DejaVuSans-61" x="163.964844"/>
       <use xlink:href="#DejaVuSans-5a" x="225.244141"/>
       <use xlink:href="#DejaVuSans-6f" x="293.75"/>
       <use xlink:href="#DejaVuSans-6f" x="354.931641"/>
       <use xlink:href="#DejaVuSans-6d" x="416.113281"/>
      </g>
     </g>
    </g>
    <g id="ytick_5">
     <g id="line2d_5">
      <g>
       <use xlink:href="#m4a1da755a1" x="126" y="238.743929" style="stroke: #000000; stroke-width: 0.8"/>
      </g>
     </g>
     <g id="text_5">
      <!-- geo -->
      <g transform="translate(92.931562 244.062835)scale(0.14 -0.14)">
       <defs>
        <path id="DejaVuSans-67" d="M 2906 1791 
Q 2906 2416 2648 2759 
Q 2391 3103 1925 3103 
Q 1463 3103 1205 2759 
Q 947 2416 947 1791 
Q 947 1169 1205 825 
Q 1463 481 1925 481 
Q 2391 481 2648 825 
Q 2906 1169 2906 1791 
z
M 3481 434 
Q 3481 -459 3084 -895 
Q 2688 -1331 1869 -1331 
Q 1566 -1331 1297 -1286 
Q 1028 -1241 775 -1147 
L 775 -588 
Q 1028 -725 1275 -790 
Q 1522 -856 1778 -856 
Q 2344 -856 2625 -561 
Q 2906 -266 2906 331 
L 2906 616 
Q 2728 306 2450 153 
Q 2172 0 1784 0 
Q 1141 0 747 490 
Q 353 981 353 1791 
Q 353 2603 747 3093 
Q 1141 3584 1784 3584 
Q 2172 3584 2450 3431 
Q 2728 3278 2906 2969 
L 2906 3500 
L 3481 3500 
L 3481 434 
z
" transform="scale(0.015625)"/>
       </defs>
       <use xlink:href="#DejaVuSans-67"/>
       <use xlink:href="#DejaVuSans-65" x="63.476562"/>
       <use xlink:href="#DejaVuSans-6f" x="125"/>
      </g>
     </g>
    </g>
    <g id="ytick_6">
     <g id="line2d_6">
      <g>
       <use xlink:href="#m4a1da755a1" x="126" y="219.544946" style="stroke: #000000; stroke-width: 0.8"/>
      </g>
     </g>
     <g id="text_6">
      <!-- markLine -->
      <g transform="translate(53.744687 224.863852)scale(0.14 -0.14)">
       <defs>
        <path id="DejaVuSans-6b" d="M 581 4863 
L 1159 4863 
L 1159 1991 
L 2875 3500 
L 3609 3500 
L 1753 1863 
L 3688 0 
L 2938 0 
L 1159 1709 
L 1159 0 
L 581 0 
L 581 4863 
z
" transform="scale(0.015625)"/>
        <path id="DejaVuSans-4c" d="M 628 4666 
L 1259 4666 
L 1259 531 
L 3531 531 
L 3531 0 
L 628 0 
L 628 4666 
z
" transform="scale(0.015625)"/>
       </defs>
       <use xlink:href="#DejaVuSans-6d"/>
       <use xlink:href="#DejaVuSans-61" x="97.412109"/>
       <use xlink:href="#DejaVuSans-72" x="158.691406"/>
       <use xlink:href="#DejaVuSans-6b" x="199.804688"/>
       <use xlink:href="#DejaVuSans-4c" x="257.714844"/>
       <use xlink:href="#DejaVuSans-69" x="313.427734"/>
       <use xlink:href="#DejaVuSans-6e" x="341.210938"/>
       <use xlink:href="#DejaVuSans-65" x="404.589844"/>
      </g>
     </g>
    </g>
    <g id="ytick_7">
     <g id="line2d_7">
      <g>
       <use xlink:href="#m4a1da755a1" x="126" y="200.345963" style="stroke: #000000; stroke-width: 0.8"/>
      </g>
     </g>
     <g id="text_7">
      <!-- toolbox -->
      <g transform="translate(67.186875 205.664869)scale(0.14 -0.14)">
       <defs>
        <path id="DejaVuSans-62" d="M 3116 1747 
Q 3116 2381 2855 2742 
Q 2594 3103 2138 3103 
Q 1681 3103 1420 2742 
Q 1159 2381 1159 1747 
Q 1159 1113 1420 752 
Q 1681 391 2138 391 
Q 2594 391 2855 752 
Q 3116 1113 3116 1747 
z
M 1159 2969 
Q 1341 3281 1617 3432 
Q 1894 3584 2278 3584 
Q 2916 3584 3314 3078 
Q 3713 2572 3713 1747 
Q 3713 922 3314 415 
Q 2916 -91 2278 -91 
Q 1894 -91 1617 61 
Q 1341 213 1159 525 
L 1159 0 
L 581 0 
L 581 4863 
L 1159 4863 
L 1159 2969 
z
" transform="scale(0.015625)"/>
        <path id="DejaVuSans-78" d="M 3513 3500 
L 2247 1797 
L 3578 0 
L 2900 0 
L 1881 1375 
L 863 0 
L 184 0 
L 1544 1831 
L 300 3500 
L 978 3500 
L 1906 2253 
L 2834 3500 
L 3513 3500 
z
" transform="scale(0.015625)"/>
       </defs>
       <use xlink:href="#DejaVuSans-74"/>
       <use xlink:href="#DejaVuSans-6f" x="39.208984"/>
       <use xlink:href="#DejaVuSans-6f" x="100.390625"/>
       <use xlink:href="#DejaVuSans-6c" x="161.572266"/>
       <use xlink:href="#DejaVuSans-62" x="189.355469"/>
       <use xlink:href="#DejaVuSans-6f" x="252.832031"/>
       <use xlink:href="#DejaVuSans-78" x="310.888672"/>
      </g>
     </g>
    </g>
    <g id="ytick_8">
     <g id="line2d_8">
      <g>
       <use xlink:href="#m4a1da755a1" x="126" y="181.14698" style="stroke: #000000; stroke-width: 0.8"/>
      </g>
     </g>
     <g id="text_8">
      <!-- markPoint -->
      <g transform="translate(48.170937 186.465887)scale(0.14 -0.14)">
       <defs>
        <path id="DejaVuSans-50" d="M 1259 4147 
L 1259 2394 
L 2053 2394 
Q 2494 2394 2734 2622 
Q 2975 2850 2975 3272 
Q 2975 3691 2734 3919 
Q 2494 4147 2053 4147 
L 1259 4147 
z
M 628 4666 
L 2053 4666 
Q 2838 4666 3239 4311 
Q 3641 3956 3641 3272 
Q 3641 2581 3239 2228 
Q 2838 1875 2053 1875 
L 1259 1875 
L 1259 0 
L 628 0 
L 628 4666 
z
" transform="scale(0.015625)"/>
       </defs>
       <use xlink:href="#DejaVuSans-6d"/>
       <use xlink:href="#DejaVuSans-61" x="97.412109"/>
       <use xlink:href="#DejaVuSans-72" x="158.691406"/>
       <use xlink:href="#DejaVuSans-6b" x="199.804688"/>
       <use xlink:href="#DejaVuSans-50" x="257.714844"/>
       <use xlink:href="#DejaVuSans-6f" x="314.392578"/>
       <use xlink:href="#DejaVuSans-69" x="375.574219"/>
       <use xlink:href="#DejaVuSans-6e" x="403.357422"/>
       <use xlink:href="#DejaVuSans-74" x="466.736328"/>
      </g>
     </g>
    </g>
    <g id="ytick_9">
     <g id="line2d_9">
      <g>
       <use xlink:href="#m4a1da755a1" x="126" y="161.947997" style="stroke: #000000; stroke-width: 0.8"/>
      </g>
     </g>
     <g id="text_9">
      <!-- grid -->
      <g transform="translate(91.579688 167.266904)scale(0.14 -0.14)">
       <use xlink:href="#DejaVuSans-67"/>
       <use xlink:href="#DejaVuSans-72" x="63.476562"/>
       <use xlink:href="#DejaVuSans-69" x="104.589844"/>
       <use xlink:href="#DejaVuSans-64" x="132.373047"/>
      </g>
     </g>
    </g>
    <g id="ytick_10">
     <g id="line2d_10">
      <g>
       <use xlink:href="#m4a1da755a1" x="126" y="142.749015" style="stroke: #000000; stroke-width: 0.8"/>
      </g>
     </g>
     <g id="text_10">
      <!-- legend -->
      <g transform="translate(71.23375 148.067921)scale(0.14 -0.14)">
       <use xlink:href="#DejaVuSans-6c"/>
       <use xlink:href="#DejaVuSans-65" x="27.783203"/>
       <use xlink:href="#DejaVuSans-67" x="89.306641"/>
       <use xlink:href="#DejaVuSans-65" x="152.783203"/>
       <use xlink:href="#DejaVuSans-6e" x="214.306641"/>
       <use xlink:href="#DejaVuSans-64" x="277.685547"/>
      </g>
     </g>
    </g>
    <g id="ytick_11">
     <g id="line2d_11">
      <g>
       <use xlink:href="#m4a1da755a1" x="126" y="123.550032" style="stroke: #000000; stroke-width: 0.8"/>
      </g>
     </g>
     <g id="text_11">
      <!-- tooltip -->
      <g transform="translate(74.224063 128.868938)scale(0.14 -0.14)">
       <use xlink:href="#DejaVuSans-74"/>
       <use xlink:href="#DejaVuSans-6f" x="39.208984"/>
       <use xlink:href="#DejaVuSans-6f" x="100.390625"/>
       <use xlink:href="#DejaVuSans-6c" x="161.572266"/>
       <use xlink:href="#DejaVuSans-74" x="189.355469"/>
       <use xlink:href="#DejaVuSans-69" x="228.564453"/>
       <use xlink:href="#DejaVuSans-70" x="256.347656"/>
      </g>
     </g>
    </g>
    <g id="ytick_12">
     <g id="line2d_12">
      <g>
       <use xlink:href="#m4a1da755a1" x="126" y="104.351049" style="stroke: #000000; stroke-width: 0.8"/>
      </g>
     </g>
     <g id="text_12">
      <!-- title -->
      <g transform="translate(91.63 109.669955)scale(0.14 -0.14)">
       <use xlink:href="#DejaVuSans-74"/>
       <use xlink:href="#DejaVuSans-69" x="39.208984"/>
       <use xlink:href="#DejaVuSans-74" x="66.992188"/>
       <use xlink:href="#DejaVuSans-6c" x="106.201172"/>
       <use xlink:href="#DejaVuSans-65" x="133.984375"/>
      </g>
     </g>
    </g>
   </g>
   <g id="text_13">
    <!-- 1945 -->
    <g transform="translate(194.801899 320.339606)scale(0.14 -0.14)">
     <defs>
      <path id="DejaVuSans-31" d="M 794 531 
L 1825 531 
L 1825 4091 
L 703 3866 
L 703 4441 
L 1819 4666 
L 2450 4666 
L 2450 531 
L 3481 531 
L 3481 0 
L 794 0 
L 794 531 
z
" transform="scale(0.015625)"/>
      <path id="DejaVuSans-39" d="M 703 97 
L 703 672 
Q 941 559 1184 500 
Q 1428 441 1663 441 
Q 2288 441 2617 861 
Q 2947 1281 2994 2138 
Q 2813 1869 2534 1725 
Q 2256 1581 1919 1581 
Q 1219 1581 811 2004 
Q 403 2428 403 3163 
Q 403 3881 828 4315 
Q 1253 4750 1959 4750 
Q 2769 4750 3195 4129 
Q 3622 3509 3622 2328 
Q 3622 1225 3098 567 
Q 2575 -91 1691 -91 
Q 1453 -91 1209 -44 
Q 966 3 703 97 
z
M 1959 2075 
Q 2384 2075 2632 2365 
Q 2881 2656 2881 3163 
Q 2881 3666 2632 3958 
Q 2384 4250 1959 4250 
Q 1534 4250 1286 3958 
Q 1038 3666 1038 3163 
Q 1038 2656 1286 2365 
Q 1534 2075 1959 2075 
z
" transform="scale(0.015625)"/>
      <path id="DejaVuSans-34" d="M 2419 4116 
L 825 1625 
L 2419 1625 
L 2419 4116 
z
M 2253 4666 
L 3047 4666 
L 3047 1625 
L 3713 1625 
L 3713 1100 
L 3047 1100 
L 3047 0 
L 2419 0 
L 2419 1100 
L 313 1100 
L 313 1709 
L 2253 4666 
z
" transform="scale(0.015625)"/>
      <path id="DejaVuSans-35" d="M 691 4666 
L 3169 4666 
L 3169 4134 
L 1269 4134 
L 1269 2991 
Q 1406 3038 1543 3061 
Q 1681 3084 1819 3084 
Q 2600 3084 3056 2656 
Q 3513 2228 3513 1497 
Q 3513 744 3044 326 
Q 2575 -91 1722 -91 
Q 1428 -91 1123 -41 
Q 819 9 494 109 
L 494 744 
Q 775 591 1075 516 
Q 1375 441 1709 441 
Q 2250 441 2565 725 
Q 2881 1009 2881 1497 
Q 2881 1984 2565 2268 
Q 2250 2553 1709 2553 
Q 1456 2553 1204 2497 
Q 953 2441 691 2322 
L 691 4666 
z
" transform="scale(0.015625)"/>
     </defs>
     <use xlink:href="#DejaVuSans-31"/>
     <use xlink:href="#DejaVuSans-39" x="63.623047"/>
     <use xlink:href="#DejaVuSans-34" x="127.246094"/>
     <use xlink:href="#DejaVuSans-35" x="190.869141"/>
    </g>
   </g>
   <g id="text_14">
    <!-- 2466 -->
    <g transform="translate(213.203228 301.140623)scale(0.14 -0.14)">
     <defs>
      <path id="DejaVuSans-32" d="M 1228 531 
L 3431 531 
L 3431 0 
L 469 0 
L 469 531 
Q 828 903 1448 1529 
Q 2069 2156 2228 2338 
Q 2531 2678 2651 2914 
Q 2772 3150 2772 3378 
Q 2772 3750 2511 3984 
Q 2250 4219 1831 4219 
Q 1534 4219 1204 4116 
Q 875 4013 500 3803 
L 500 4441 
Q 881 4594 1212 4672 
Q 1544 4750 1819 4750 
Q 2544 4750 2975 4387 
Q 3406 4025 3406 3419 
Q 3406 3131 3298 2873 
Q 3191 2616 2906 2266 
Q 2828 2175 2409 1742 
Q 1991 1309 1228 531 
z
" transform="scale(0.015625)"/>
      <path id="DejaVuSans-36" d="M 2113 2584 
Q 1688 2584 1439 2293 
Q 1191 2003 1191 1497 
Q 1191 994 1439 701 
Q 1688 409 2113 409 
Q 2538 409 2786 701 
Q 3034 994 3034 1497 
Q 3034 2003 2786 2293 
Q 2538 2584 2113 2584 
z
M 3366 4563 
L 3366 3988 
Q 3128 4100 2886 4159 
Q 2644 4219 2406 4219 
Q 1781 4219 1451 3797 
Q 1122 3375 1075 2522 
Q 1259 2794 1537 2939 
Q 1816 3084 2150 3084 
Q 2853 3084 3261 2657 
Q 3669 2231 3669 1497 
Q 3669 778 3244 343 
Q 2819 -91 2113 -91 
Q 1303 -91 875 529 
Q 447 1150 447 2328 
Q 447 3434 972 4092 
Q 1497 4750 2381 4750 
Q 2619 4750 2861 4703 
Q 3103 4656 3366 4563 
z
" transform="scale(0.015625)"/>
     </defs>
     <use xlink:href="#DejaVuSans-32"/>
     <use xlink:href="#DejaVuSans-34" x="63.623047"/>
     <use xlink:href="#DejaVuSans-36" x="127.246094"/>
     <use xlink:href="#DejaVuSans-36" x="190.869141"/>
    </g>
   </g>
   <g id="text_15">
    <!-- 2739 -->
    <g transform="translate(222.845383 281.94164)scale(0.14 -0.14)">
     <defs>
      <path id="DejaVuSans-37" d="M 525 4666 
L 3525 4666 
L 3525 4397 
L 1831 0 
L 1172 0 
L 2766 4134 
L 525 4134 
L 525 4666 
z
" transform="scale(0.015625)"/>
      <path id="DejaVuSans-33" d="M 2597 2516 
Q 3050 2419 3304 2112 
Q 3559 1806 3559 1356 
Q 3559 666 3084 287 
Q 2609 -91 1734 -91 
Q 1441 -91 1130 -33 
Q 819 25 488 141 
L 488 750 
Q 750 597 1062 519 
Q 1375 441 1716 441 
Q 2309 441 2620 675 
Q 2931 909 2931 1356 
Q 2931 1769 2642 2001 
Q 2353 2234 1838 2234 
L 1294 2234 
L 1294 2753 
L 1863 2753 
Q 2328 2753 2575 2939 
Q 2822 3125 2822 3475 
Q 2822 3834 2567 4026 
Q 2313 4219 1838 4219 
Q 1578 4219 1281 4162 
Q 984 4106 628 3988 
L 628 4550 
Q 988 4650 1302 4700 
Q 1616 4750 1894 4750 
Q 2613 4750 3031 4423 
Q 3450 4097 3450 3541 
Q 3450 3153 3228 2886 
Q 3006 2619 2597 2516 
z
" transform="scale(0.015625)"/>
     </defs>
     <use xlink:href="#DejaVuSans-32"/>
     <use xlink:href="#DejaVuSans-37" x="63.623047"/>
     <use xlink:href="#DejaVuSans-33" x="127.246094"/>
     <use xlink:href="#DejaVuSans-39" x="190.869141"/>
    </g>
   </g>
   <g id="text_16">
    <!-- 2744 -->
    <g transform="translate(223.02198 262.742657)scale(0.14 -0.14)">
     <use xlink:href="#DejaVuSans-32"/>
     <use xlink:href="#DejaVuSans-37" x="63.623047"/>
     <use xlink:href="#DejaVuSans-34" x="127.246094"/>
     <use xlink:href="#DejaVuSans-34" x="190.869141"/>
    </g>
   </g>
   <g id="text_17">
    <!-- 2788 -->
    <g transform="translate(224.576027 243.543675)scale(0.14 -0.14)">
     <defs>
      <path id="DejaVuSans-38" d="M 2034 2216 
Q 1584 2216 1326 1975 
Q 1069 1734 1069 1313 
Q 1069 891 1326 650 
Q 1584 409 2034 409 
Q 2484 409 2743 651 
Q 3003 894 3003 1313 
Q 3003 1734 2745 1975 
Q 2488 2216 2034 2216 
z
M 1403 2484 
Q 997 2584 770 2862 
Q 544 3141 544 3541 
Q 544 4100 942 4425 
Q 1341 4750 2034 4750 
Q 2731 4750 3128 4425 
Q 3525 4100 3525 3541 
Q 3525 3141 3298 2862 
Q 3072 2584 2669 2484 
Q 3125 2378 3379 2068 
Q 3634 1759 3634 1313 
Q 3634 634 3220 271 
Q 2806 -91 2034 -91 
Q 1263 -91 848 271 
Q 434 634 434 1313 
Q 434 1759 690 2068 
Q 947 2378 1403 2484 
z
M 1172 3481 
Q 1172 3119 1398 2916 
Q 1625 2713 2034 2713 
Q 2441 2713 2670 2916 
Q 2900 3119 2900 3481 
Q 2900 3844 2670 4047 
Q 2441 4250 2034 4250 
Q 1625 4250 1398 4047 
Q 1172 3844 1172 3481 
z
" transform="scale(0.015625)"/>
     </defs>
     <use xlink:href="#DejaVuSans-32"/>
     <use xlink:href="#DejaVuSans-37" x="63.623047"/>
     <use xlink:href="#DejaVuSans-38" x="127.246094"/>
     <use xlink:href="#DejaVuSans-38" x="190.869141"/>
    </g>
   </g>
   <g id="text_18">
    <!-- 2984 -->
    <g transform="translate(231.4986 224.344692)scale(0.14 -0.14)">
     <use xlink:href="#DejaVuSans-32"/>
     <use xlink:href="#DejaVuSans-39" x="63.623047"/>
     <use xlink:href="#DejaVuSans-38" x="127.246094"/>
     <use xlink:href="#DejaVuSans-34" x="190.869141"/>
    </g>
   </g>
   <g id="text_19">
    <!-- 3034 -->
    <g transform="translate(233.264562 205.145709)scale(0.14 -0.14)">
     <defs>
      <path id="DejaVuSans-30" d="M 2034 4250 
Q 1547 4250 1301 3770 
Q 1056 3291 1056 2328 
Q 1056 1369 1301 889 
Q 1547 409 2034 409 
Q 2525 409 2770 889 
Q 3016 1369 3016 2328 
Q 3016 3291 2770 3770 
Q 2525 4250 2034 4250 
z
M 2034 4750 
Q 2819 4750 3233 4129 
Q 3647 3509 3647 2328 
Q 3647 1150 3233 529 
Q 2819 -91 2034 -91 
Q 1250 -91 836 529 
Q 422 1150 422 2328 
Q 422 3509 836 4129 
Q 1250 4750 2034 4750 
z
" transform="scale(0.015625)"/>
     </defs>
     <use xlink:href="#DejaVuSans-33"/>
     <use xlink:href="#DejaVuSans-30" x="63.623047"/>
     <use xlink:href="#DejaVuSans-33" x="127.246094"/>
     <use xlink:href="#DejaVuSans-34" x="190.869141"/>
    </g>
   </g>
   <g id="text_20">
    <!-- 3419 -->
    <g transform="translate(246.862473 185.946726)scale(0.14 -0.14)">
     <use xlink:href="#DejaVuSans-33"/>
     <use xlink:href="#DejaVuSans-34" x="63.623047"/>
     <use xlink:href="#DejaVuSans-31" x="127.246094"/>
     <use xlink:href="#DejaVuSans-39" x="190.869141"/>
    </g>
   </g>
   <g id="text_21">
    <!-- 9266 -->
    <g transform="translate(453.374128 166.747743)scale(0.14 -0.14)">
     <use xlink:href="#DejaVuSans-39"/>
     <use xlink:href="#DejaVuSans-32" x="63.623047"/>
     <use xlink:href="#DejaVuSans-36" x="127.246094"/>
     <use xlink:href="#DejaVuSans-36" x="190.869141"/>
    </g>
   </g>
   <g id="text_22">
    <!-- 9400 -->
    <g transform="translate(458.106907 147.54876)scale(0.14 -0.14)">
     <use xlink:href="#DejaVuSans-39"/>
     <use xlink:href="#DejaVuSans-34" x="63.623047"/>
     <use xlink:href="#DejaVuSans-30" x="127.246094"/>
     <use xlink:href="#DejaVuSans-30" x="190.869141"/>
    </g>
   </g>
   <g id="text_23">
    <!-- 9466 -->
    <g transform="translate(460.437978 128.349777)scale(0.14 -0.14)">
     <use xlink:href="#DejaVuSans-39"/>
     <use xlink:href="#DejaVuSans-34" x="63.623047"/>
     <use xlink:href="#DejaVuSans-36" x="127.246094"/>
     <use xlink:href="#DejaVuSans-36" x="190.869141"/>
    </g>
   </g>
   <g id="text_24">
    <!-- 9575 -->
    <g transform="translate(464.287776 109.150795)scale(0.14 -0.14)">
     <use xlink:href="#DejaVuSans-39"/>
     <use xlink:href="#DejaVuSans-35" x="63.623047"/>
     <use xlink:href="#DejaVuSans-37" x="127.246094"/>
     <use xlink:href="#DejaVuSans-35" x="190.869141"/>
    </g>
   </g>
   <g id="text_25">
    <!-- Online build -->
    <g transform="translate(253.124455 80.4)scale(0.168 -0.168)">
     <defs>
      <path id="DejaVuSans-4f" d="M 2522 4238 
Q 1834 4238 1429 3725 
Q 1025 3213 1025 2328 
Q 1025 1447 1429 934 
Q 1834 422 2522 422 
Q 3209 422 3611 934 
Q 4013 1447 4013 2328 
Q 4013 3213 3611 3725 
Q 3209 4238 2522 4238 
z
M 2522 4750 
Q 3503 4750 4090 4092 
Q 4678 3434 4678 2328 
Q 4678 1225 4090 567 
Q 3503 -91 2522 -91 
Q 1538 -91 948 565 
Q 359 1222 359 2328 
Q 359 3434 948 4092 
Q 1538 4750 2522 4750 
z
" transform="scale(0.015625)"/>
      <path id="DejaVuSans-20" transform="scale(0.015625)"/>
     </defs>
     <use xlink:href="#DejaVuSans-4f"/>
     <use xlink:href="#DejaVuSans-6e" x="78.710938"/>
     <use xlink:href="#DejaVuSans-6c" x="142.089844"/>
     <use xlink:href="#DejaVuSans-69" x="169.873047"/>
     <use xlink:href="#DejaVuSans-6e" x="197.65625"/>
     <use xlink:href="#DejaVuSans-65" x="261.035156"/>
     <use xlink:href="#DejaVuSans-20" x="322.558594"/>
     <use xlink:href="#DejaVuSans-62" x="354.345703"/>
     <use xlink:href="#DejaVuSans-75" x="417.822266"/>
     <use xlink:href="#DejaVuSans-69" x="481.201172"/>
     <use xlink:href="#DejaVuSans-6c" x="508.984375"/>
     <use xlink:href="#DejaVuSans-64" x="536.767578"/>
    </g>
   </g>
  </g>
  <g id="axes_2">
   <g id="patch_15">
    <path d="M 126 630 
L 481.090909 630 
L 481.090909 382.909091 
L 126 382.909091 
z
" style="fill: #ffffff"/>
   </g>
   <g id="patch_16">
    <path d="M 126 618.768595 
L 192.827649 618.768595 
L 192.827649 608.753329 
L 126 608.753329 
z
" clip-path="url(#pf11a596194)" style="fill: #90ee90"/>
   </g>
   <g id="patch_17">
    <path d="M 126 604.461073 
L 194.175507 604.461073 
L 194.175507 594.445807 
L 126 594.445807 
z
" clip-path="url(#pf11a596194)" style="fill: #90ee90"/>
   </g>
   <g id="patch_18">
    <path d="M 126 590.153551 
L 195.262489 590.153551 
L 195.262489 580.138285 
L 126 580.138285 
z
" clip-path="url(#pf11a596194)" style="fill: #90ee90"/>
   </g>
   <g id="patch_19">
    <path d="M 126 575.846028 
L 199.566937 575.846028 
L 199.566937 565.830763 
L 126 565.830763 
z
" clip-path="url(#pf11a596194)" style="fill: #90ee90"/>
   </g>
   <g id="patch_20">
    <path d="M 126 561.538506 
L 202.610486 561.538506 
L 202.610486 551.523241 
L 126 551.523241 
z
" clip-path="url(#pf11a596194)" style="fill: #90ee90"/>
   </g>
   <g id="patch_21">
    <path d="M 126 547.230984 
L 206.088829 547.230984 
L 206.088829 537.215718 
L 126 537.215718 
z
" clip-path="url(#pf11a596194)" style="fill: #90ee90"/>
   </g>
   <g id="patch_22">
    <path d="M 126 532.923462 
L 208.958461 532.923462 
L 208.958461 522.908196 
L 126 522.908196 
z
" clip-path="url(#pf11a596194)" style="fill: #90ee90"/>
   </g>
   <g id="patch_23">
    <path d="M 126 518.615939 
L 215.567311 518.615939 
L 215.567311 508.600674 
L 126 508.600674 
z
" clip-path="url(#pf11a596194)" style="fill: #90ee90"/>
   </g>
   <g id="patch_24">
    <path d="M 126 504.308417 
L 216.871689 504.308417 
L 216.871689 494.293152 
L 126 494.293152 
z
" clip-path="url(#pf11a596194)" style="fill: #90ee90"/>
   </g>
   <g id="patch_25">
    <path d="M 126 490.000895 
L 217.610837 490.000895 
L 217.610837 479.985629 
L 126 479.985629 
z
" clip-path="url(#pf11a596194)" style="fill: #90ee90"/>
   </g>
   <g id="patch_26">
    <path d="M 126 475.693373 
L 220.089156 475.693373 
L 220.089156 465.678107 
L 126 465.678107 
z
" clip-path="url(#pf11a596194)" style="fill: #90ee90"/>
   </g>
   <g id="patch_27">
    <path d="M 126 461.38585 
L 230.567662 461.38585 
L 230.567662 451.370585 
L 126 451.370585 
z
" clip-path="url(#pf11a596194)" style="fill: #90ee90"/>
   </g>
   <g id="patch_28">
    <path d="M 126 447.078328 
L 266.74242 447.078328 
L 266.74242 437.063063 
L 126 437.063063 
z
" clip-path="url(#pf11a596194)" style="fill: #90ee90"/>
   </g>
   <g id="patch_29">
    <path d="M 126 432.770806 
L 445.790084 432.770806 
L 445.790084 422.75554 
L 126 422.75554 
z
" clip-path="url(#pf11a596194)" style="fill: #90ee90"/>
   </g>
   <g id="patch_30">
    <path d="M 126 418.463284 
L 454.746815 418.463284 
L 454.746815 408.448018 
L 126 408.448018 
z
" clip-path="url(#pf11a596194)" style="fill: #90ee90"/>
   </g>
   <g id="patch_31">
    <path d="M 126 404.155761 
L 464.181818 404.155761 
L 464.181818 394.140496 
L 126 394.140496 
z
" clip-path="url(#pf11a596194)" style="fill: #90ee90"/>
   </g>
   <g id="matplotlib.axis_3"/>
   <g id="matplotlib.axis_4">
    <g id="ytick_13">
     <g id="line2d_13">
      <g>
       <use xlink:href="#m4a1da755a1" x="126" y="613.760962" style="stroke: #000000; stroke-width: 0.8"/>
      </g>
     </g>
     <g id="text_26">
      <!-- boxplot -->
      <g transform="translate(66.865312 619.079869)scale(0.14 -0.14)">
       <use xlink:href="#DejaVuSans-62"/>
       <use xlink:href="#DejaVuSans-6f" x="63.476562"/>
       <use xlink:href="#DejaVuSans-78" x="121.533203"/>
       <use xlink:href="#DejaVuSans-70" x="180.712891"/>
       <use xlink:href="#DejaVuSans-6c" x="244.189453"/>
       <use xlink:href="#DejaVuSans-6f" x="271.972656"/>
       <use xlink:href="#DejaVuSans-74" x="333.154297"/>
      </g>
     </g>
    </g>
    <g id="ytick_14">
     <g id="line2d_14">
      <g>
       <use xlink:href="#m4a1da755a1" x="126" y="599.45344" style="stroke: #000000; stroke-width: 0.8"/>
      </g>
     </g>
     <g id="text_27">
      <!-- sankey -->
      <g transform="translate(69.755 604.772346)scale(0.14 -0.14)">
       <defs>
        <path id="DejaVuSans-79" d="M 2059 -325 
Q 1816 -950 1584 -1140 
Q 1353 -1331 966 -1331 
L 506 -1331 
L 506 -850 
L 844 -850 
Q 1081 -850 1212 -737 
Q 1344 -625 1503 -206 
L 1606 56 
L 191 3500 
L 800 3500 
L 1894 763 
L 2988 3500 
L 3597 3500 
L 2059 -325 
z
" transform="scale(0.015625)"/>
       </defs>
       <use xlink:href="#DejaVuSans-73"/>
       <use xlink:href="#DejaVuSans-61" x="52.099609"/>
       <use xlink:href="#DejaVuSans-6e" x="113.378906"/>
       <use xlink:href="#DejaVuSans-6b" x="176.757812"/>
       <use xlink:href="#DejaVuSans-65" x="231.042969"/>
       <use xlink:href="#DejaVuSans-79" x="292.566406"/>
      </g>
     </g>
    </g>
    <g id="ytick_15">
     <g id="line2d_15">
      <g>
       <use xlink:href="#m4a1da755a1" x="126" y="585.145918" style="stroke: #000000; stroke-width: 0.8"/>
      </g>
     </g>
     <g id="text_28">
      <!-- treemap -->
      <g transform="translate(59.738437 590.464824)scale(0.14 -0.14)">
       <use xlink:href="#DejaVuSans-74"/>
       <use xlink:href="#DejaVuSans-72" x="39.208984"/>
       <use xlink:href="#DejaVuSans-65" x="78.072266"/>
       <use xlink:href="#DejaVuSans-65" x="139.595703"/>
       <use xlink:href="#DejaVuSans-6d" x="201.119141"/>
       <use xlink:href="#DejaVuSans-61" x="298.53125"/>
       <use xlink:href="#DejaVuSans-70" x="359.810547"/>
      </g>
     </g>
    </g>
    <g id="ytick_16">
     <g id="line2d_16">
      <g>
       <use xlink:href="#m4a1da755a1" x="126" y="570.838396" style="stroke: #000000; stroke-width: 0.8"/>
      </g>
     </g>
     <g id="text_29">
      <!-- funnel -->
      <g transform="translate(74.950312 576.157302)scale(0.14 -0.14)">
       <defs>
        <path id="DejaVuSans-66" d="M 2375 4863 
L 2375 4384 
L 1825 4384 
Q 1516 4384 1395 4259 
Q 1275 4134 1275 3809 
L 1275 3500 
L 2222 3500 
L 2222 3053 
L 1275 3053 
L 1275 0 
L 697 0 
L 697 3053 
L 147 3053 
L 147 3500 
L 697 3500 
L 697 3744 
Q 697 4328 969 4595 
Q 1241 4863 1831 4863 
L 2375 4863 
z
" transform="scale(0.015625)"/>
       </defs>
       <use xlink:href="#DejaVuSans-66"/>
       <use xlink:href="#DejaVuSans-75" x="35.205078"/>
       <use xlink:href="#DejaVuSans-6e" x="98.583984"/>
       <use xlink:href="#DejaVuSans-6e" x="161.962891"/>
       <use xlink:href="#DejaVuSans-65" x="225.341797"/>
       <use xlink:href="#DejaVuSans-6c" x="286.865234"/>
      </g>
     </g>
    </g>
    <g id="ytick_17">
     <g id="line2d_17">
      <g>
       <use xlink:href="#m4a1da755a1" x="126" y="556.530873" style="stroke: #000000; stroke-width: 0.8"/>
      </g>
     </g>
     <g id="text_30">
      <!-- heatmap -->
      <g transform="translate(56.34125 561.84978)scale(0.14 -0.14)">
       <defs>
        <path id="DejaVuSans-68" d="M 3513 2113 
L 3513 0 
L 2938 0 
L 2938 2094 
Q 2938 2591 2744 2837 
Q 2550 3084 2163 3084 
Q 1697 3084 1428 2787 
Q 1159 2491 1159 1978 
L 1159 0 
L 581 0 
L 581 4863 
L 1159 4863 
L 1159 2956 
Q 1366 3272 1645 3428 
Q 1925 3584 2291 3584 
Q 2894 3584 3203 3211 
Q 3513 2838 3513 2113 
z
" transform="scale(0.015625)"/>
       </defs>
       <use xlink:href="#DejaVuSans-68"/>
       <use xlink:href="#DejaVuSans-65" x="63.378906"/>
       <use xlink:href="#DejaVuSans-61" x="124.902344"/>
       <use xlink:href="#DejaVuSans-74" x="186.181641"/>
       <use xlink:href="#DejaVuSans-6d" x="225.390625"/>
       <use xlink:href="#DejaVuSans-61" x="322.802734"/>
       <use xlink:href="#DejaVuSans-70" x="384.082031"/>
      </g>
     </g>
    </g>
    <g id="ytick_18">
     <g id="line2d_18">
      <g>
       <use xlink:href="#m4a1da755a1" x="126" y="542.223351" style="stroke: #000000; stroke-width: 0.8"/>
      </g>
     </g>
     <g id="text_31">
      <!-- candlestick -->
      <g transform="translate(39.983125 547.542257)scale(0.14 -0.14)">
       <defs>
        <path id="DejaVuSans-63" d="M 3122 3366 
L 3122 2828 
Q 2878 2963 2633 3030 
Q 2388 3097 2138 3097 
Q 1578 3097 1268 2742 
Q 959 2388 959 1747 
Q 959 1106 1268 751 
Q 1578 397 2138 397 
Q 2388 397 2633 464 
Q 2878 531 3122 666 
L 3122 134 
Q 2881 22 2623 -34 
Q 2366 -91 2075 -91 
Q 1284 -91 818 406 
Q 353 903 353 1747 
Q 353 2603 823 3093 
Q 1294 3584 2113 3584 
Q 2378 3584 2631 3529 
Q 2884 3475 3122 3366 
z
" transform="scale(0.015625)"/>
       </defs>
       <use xlink:href="#DejaVuSans-63"/>
       <use xlink:href="#DejaVuSans-61" x="54.980469"/>
       <use xlink:href="#DejaVuSans-6e" x="116.259766"/>
       <use xlink:href="#DejaVuSans-64" x="179.638672"/>
       <use xlink:href="#DejaVuSans-6c" x="243.115234"/>
       <use xlink:href="#DejaVuSans-65" x="270.898438"/>
       <use xlink:href="#DejaVuSans-73" x="332.421875"/>
       <use xlink:href="#DejaVuSans-74" x="384.521484"/>
       <use xlink:href="#DejaVuSans-69" x="423.730469"/>
       <use xlink:href="#DejaVuSans-63" x="451.513672"/>
       <use xlink:href="#DejaVuSans-6b" x="506.494141"/>
      </g>
     </g>
    </g>
    <g id="ytick_19">
     <g id="line2d_19">
      <g>
       <use xlink:href="#m4a1da755a1" x="126" y="527.915829" style="stroke: #000000; stroke-width: 0.8"/>
      </g>
     </g>
     <g id="text_32">
      <!-- parallel -->
      <g transform="translate(66.915625 533.234735)scale(0.14 -0.14)">
       <use xlink:href="#DejaVuSans-70"/>
       <use xlink:href="#DejaVuSans-61" x="63.476562"/>
       <use xlink:href="#DejaVuSans-72" x="124.755859"/>
       <use xlink:href="#DejaVuSans-61" x="165.869141"/>
       <use xlink:href="#DejaVuSans-6c" x="227.148438"/>
       <use xlink:href="#DejaVuSans-6c" x="254.931641"/>
       <use xlink:href="#DejaVuSans-65" x="282.714844"/>
       <use xlink:href="#DejaVuSans-6c" x="344.238281"/>
      </g>
     </g>
    </g>
    <g id="ytick_20">
     <g id="line2d_20">
      <g>
       <use xlink:href="#m4a1da755a1" x="126" y="513.608307" style="stroke: #000000; stroke-width: 0.8"/>
      </g>
     </g>
     <g id="text_33">
      <!-- graph -->
      <g transform="translate(78.017188 518.927213)scale(0.14 -0.14)">
       <use xlink:href="#DejaVuSans-67"/>
       <use xlink:href="#DejaVuSans-72" x="63.476562"/>
       <use xlink:href="#DejaVuSans-61" x="104.589844"/>
       <use xlink:href="#DejaVuSans-70" x="165.869141"/>
       <use xlink:href="#DejaVuSans-68" x="229.345703"/>
      </g>
     </g>
    </g>
    <g id="ytick_21">
     <g id="line2d_21">
      <g>
       <use xlink:href="#m4a1da755a1" x="126" y="499.300784" style="stroke: #000000; stroke-width: 0.8"/>
      </g>
     </g>
     <g id="text_34">
      <!-- radar -->
      <g transform="translate(81.442813 504.619691)scale(0.14 -0.14)">
       <use xlink:href="#DejaVuSans-72"/>
       <use xlink:href="#DejaVuSans-61" x="41.113281"/>
       <use xlink:href="#DejaVuSans-64" x="102.392578"/>
       <use xlink:href="#DejaVuSans-61" x="165.869141"/>
       <use xlink:href="#DejaVuSans-72" x="227.148438"/>
      </g>
     </g>
    </g>
    <g id="ytick_22">
     <g id="line2d_22">
      <g>
       <use xlink:href="#m4a1da755a1" x="126" y="484.993262" style="stroke: #000000; stroke-width: 0.8"/>
      </g>
     </g>
     <g id="text_35">
      <!-- gauge -->
      <g transform="translate(75.158125 490.312168)scale(0.14 -0.14)">
       <use xlink:href="#DejaVuSans-67"/>
       <use xlink:href="#DejaVuSans-61" x="63.476562"/>
       <use xlink:href="#DejaVuSans-75" x="124.755859"/>
       <use xlink:href="#DejaVuSans-67" x="188.134766"/>
       <use xlink:href="#DejaVuSans-65" x="251.611328"/>
      </g>
     </g>
    </g>
    <g id="ytick_23">
     <g id="line2d_23">
      <g>
       <use xlink:href="#m4a1da755a1" x="126" y="470.68574" style="stroke: #000000; stroke-width: 0.8"/>
      </g>
     </g>
     <g id="text_36">
      <!-- lines -->
      <g transform="translate(86.44125 476.004646)scale(0.14 -0.14)">
       <use xlink:href="#DejaVuSans-6c"/>
       <use xlink:href="#DejaVuSans-69" x="27.783203"/>
       <use xlink:href="#DejaVuSans-6e" x="55.566406"/>
       <use xlink:href="#DejaVuSans-65" x="118.945312"/>
       <use xlink:href="#DejaVuSans-73" x="180.46875"/>
      </g>
     </g>
    </g>
    <g id="ytick_24">
     <g id="line2d_24">
      <g>
       <use xlink:href="#m4a1da755a1" x="126" y="456.378218" style="stroke: #000000; stroke-width: 0.8"/>
      </g>
     </g>
     <g id="text_37">
      <!-- scatter -->
      <g transform="translate(70.083125 461.697124)scale(0.14 -0.14)">
       <use xlink:href="#DejaVuSans-73"/>
       <use xlink:href="#DejaVuSans-63" x="52.099609"/>
       <use xlink:href="#DejaVuSans-61" x="107.080078"/>
       <use xlink:href="#DejaVuSans-74" x="168.359375"/>
       <use xlink:href="#DejaVuSans-74" x="207.568359"/>
       <use xlink:href="#DejaVuSans-65" x="246.777344"/>
       <use xlink:href="#DejaVuSans-72" x="308.300781"/>
      </g>
     </g>
    </g>
    <g id="ytick_25">
     <g id="line2d_25">
      <g>
       <use xlink:href="#m4a1da755a1" x="126" y="442.070695" style="stroke: #000000; stroke-width: 0.8"/>
      </g>
     </g>
     <g id="text_38">
      <!-- map -->
      <g transform="translate(87.895938 447.389602)scale(0.14 -0.14)">
       <use xlink:href="#DejaVuSans-6d"/>
       <use xlink:href="#DejaVuSans-61" x="97.412109"/>
       <use xlink:href="#DejaVuSans-70" x="158.691406"/>
      </g>
     </g>
    </g>
    <g id="ytick_26">
     <g id="line2d_26">
      <g>
       <use xlink:href="#m4a1da755a1" x="126" y="427.763173" style="stroke: #000000; stroke-width: 0.8"/>
      </g>
     </g>
     <g id="text_39">
      <!-- pie -->
      <g transform="translate(97.608437 433.082079)scale(0.14 -0.14)">
       <use xlink:href="#DejaVuSans-70"/>
       <use xlink:href="#DejaVuSans-69" x="63.476562"/>
       <use xlink:href="#DejaVuSans-65" x="91.259766"/>
      </g>
     </g>
    </g>
    <g id="ytick_27">
     <g id="line2d_27">
      <g>
       <use xlink:href="#m4a1da755a1" x="126" y="413.455651" style="stroke: #000000; stroke-width: 0.8"/>
      </g>
     </g>
     <g id="text_40">
      <!-- bar -->
      <g transform="translate(95.7775 418.774557)scale(0.14 -0.14)">
       <use xlink:href="#DejaVuSans-62"/>
       <use xlink:href="#DejaVuSans-61" x="63.476562"/>
       <use xlink:href="#DejaVuSans-72" x="124.755859"/>
      </g>
     </g>
    </g>
    <g id="ytick_28">
     <g id="line2d_28">
      <g>
       <use xlink:href="#m4a1da755a1" x="126" y="399.148129" style="stroke: #000000; stroke-width: 0.8"/>
      </g>
     </g>
     <g id="text_41">
      <!-- line -->
      <g transform="translate(93.734375 404.467035)scale(0.14 -0.14)">
       <use xlink:href="#DejaVuSans-6c"/>
       <use xlink:href="#DejaVuSans-69" x="27.783203"/>
       <use xlink:href="#DejaVuSans-6e" x="55.566406"/>
       <use xlink:href="#DejaVuSans-65" x="118.945312"/>
      </g>
     </g>
    </g>
   </g>
   <g id="text_42">
    <!-- 1537 -->
    <g transform="translate(192.958087 617.337843)scale(0.14 -0.14)">
     <use xlink:href="#DejaVuSans-31"/>
     <use xlink:href="#DejaVuSans-35" x="63.623047"/>
     <use xlink:href="#DejaVuSans-33" x="127.246094"/>
     <use xlink:href="#DejaVuSans-37" x="190.869141"/>
    </g>
   </g>
   <g id="text_43">
    <!-- 1568 -->
    <g transform="translate(194.305945 603.030321)scale(0.14 -0.14)">
     <use xlink:href="#DejaVuSans-31"/>
     <use xlink:href="#DejaVuSans-35" x="63.623047"/>
     <use xlink:href="#DejaVuSans-36" x="127.246094"/>
     <use xlink:href="#DejaVuSans-38" x="190.869141"/>
    </g>
   </g>
   <g id="text_44">
    <!-- 1593 -->
    <g transform="translate(195.392926 588.722798)scale(0.14 -0.14)">
     <use xlink:href="#DejaVuSans-31"/>
     <use xlink:href="#DejaVuSans-35" x="63.623047"/>
     <use xlink:href="#DejaVuSans-39" x="127.246094"/>
     <use xlink:href="#DejaVuSans-33" x="190.869141"/>
    </g>
   </g>
   <g id="text_45">
    <!-- 1692 -->
    <g transform="translate(199.697375 574.415276)scale(0.14 -0.14)">
     <use xlink:href="#DejaVuSans-31"/>
     <use xlink:href="#DejaVuSans-36" x="63.623047"/>
     <use xlink:href="#DejaVuSans-39" x="127.246094"/>
     <use xlink:href="#DejaVuSans-32" x="190.869141"/>
    </g>
   </g>
   <g id="text_46">
    <!-- 1762 -->
    <g transform="translate(202.740924 560.107754)scale(0.14 -0.14)">
     <use xlink:href="#DejaVuSans-31"/>
     <use xlink:href="#DejaVuSans-37" x="63.623047"/>
     <use xlink:href="#DejaVuSans-36" x="127.246094"/>
     <use xlink:href="#DejaVuSans-32" x="190.869141"/>
    </g>
   </g>
   <g id="text_47">
    <!-- 1842 -->
    <g transform="translate(206.219266 545.800232)scale(0.14 -0.14)">
     <use xlink:href="#DejaVuSans-31"/>
     <use xlink:href="#DejaVuSans-38" x="63.623047"/>
     <use xlink:href="#DejaVuSans-34" x="127.246094"/>
     <use xlink:href="#DejaVuSans-32" x="190.869141"/>
    </g>
   </g>
   <g id="text_48">
    <!-- 1908 -->
    <g transform="translate(209.088899 531.492709)scale(0.14 -0.14)">
     <use xlink:href="#DejaVuSans-31"/>
     <use xlink:href="#DejaVuSans-39" x="63.623047"/>
     <use xlink:href="#DejaVuSans-30" x="127.246094"/>
     <use xlink:href="#DejaVuSans-38" x="190.869141"/>
    </g>
   </g>
   <g id="text_49">
    <!-- 2060 -->
    <g transform="translate(215.697749 517.185187)scale(0.14 -0.14)">
     <use xlink:href="#DejaVuSans-32"/>
     <use xlink:href="#DejaVuSans-30" x="63.623047"/>
     <use xlink:href="#DejaVuSans-36" x="127.246094"/>
     <use xlink:href="#DejaVuSans-30" x="190.869141"/>
    </g>
   </g>
   <g id="text_50">
    <!-- 2090 -->
    <g transform="translate(217.002127 502.877665)scale(0.14 -0.14)">
     <use xlink:href="#DejaVuSans-32"/>
     <use xlink:href="#DejaVuSans-30" x="63.623047"/>
     <use xlink:href="#DejaVuSans-39" x="127.246094"/>
     <use xlink:href="#DejaVuSans-30" x="190.869141"/>
    </g>
   </g>
   <g id="text_51">
    <!-- 2107 -->
    <g transform="translate(217.741275 488.570143)scale(0.14 -0.14)">
     <use xlink:href="#DejaVuSans-32"/>
     <use xlink:href="#DejaVuSans-31" x="63.623047"/>
     <use xlink:href="#DejaVuSans-30" x="127.246094"/>
     <use xlink:href="#DejaVuSans-37" x="190.869141"/>
    </g>
   </g>
   <g id="text_52">
    <!-- 2164 -->
    <g transform="translate(220.219594 474.26262)scale(0.14 -0.14)">
     <use xlink:href="#DejaVuSans-32"/>
     <use xlink:href="#DejaVuSans-31" x="63.623047"/>
     <use xlink:href="#DejaVuSans-36" x="127.246094"/>
     <use xlink:href="#DejaVuSans-34" x="190.869141"/>
    </g>
   </g>
   <g id="text_53">
    <!-- 2405 -->
    <g transform="translate(230.6981 459.955098)scale(0.14 -0.14)">
     <use xlink:href="#DejaVuSans-32"/>
     <use xlink:href="#DejaVuSans-34" x="63.623047"/>
     <use xlink:href="#DejaVuSans-30" x="127.246094"/>
     <use xlink:href="#DejaVuSans-35" x="190.869141"/>
    </g>
   </g>
   <g id="text_54">
    <!-- 3237 -->
    <g transform="translate(266.872858 445.647576)scale(0.14 -0.14)">
     <use xlink:href="#DejaVuSans-33"/>
     <use xlink:href="#DejaVuSans-32" x="63.623047"/>
     <use xlink:href="#DejaVuSans-33" x="127.246094"/>
     <use xlink:href="#DejaVuSans-37" x="190.869141"/>
    </g>
   </g>
   <g id="text_55">
    <!-- 7355 -->
    <g transform="translate(445.920522 431.340054)scale(0.14 -0.14)">
     <use xlink:href="#DejaVuSans-37"/>
     <use xlink:href="#DejaVuSans-33" x="63.623047"/>
     <use xlink:href="#DejaVuSans-35" x="127.246094"/>
     <use xlink:href="#DejaVuSans-35" x="190.869141"/>
    </g>
   </g>
   <g id="text_56">
    <!-- 7561 -->
    <g transform="translate(454.877253 417.032531)scale(0.14 -0.14)">
     <use xlink:href="#DejaVuSans-37"/>
     <use xlink:href="#DejaVuSans-35" x="63.623047"/>
     <use xlink:href="#DejaVuSans-36" x="127.246094"/>
     <use xlink:href="#DejaVuSans-31" x="190.869141"/>
    </g>
   </g>
   <g id="text_57">
    <!-- 7778 -->
    <g transform="translate(464.312256 402.725009)scale(0.14 -0.14)">
     <use xlink:href="#DejaVuSans-37"/>
     <use xlink:href="#DejaVuSans-37" x="63.623047"/>
     <use xlink:href="#DejaVuSans-37" x="127.246094"/>
     <use xlink:href="#DejaVuSans-38" x="190.869141"/>
    </g>
   </g>
  </g>
  <g id="axes_3">
   <g id="patch_32">
    <path d="M 727.919446 99.872956 
C 704.171571 99.872956 681.027267 107.420785 661.845185 121.421117 
C 642.663104 135.421448 628.418299 155.162626 621.177947 177.779851 
C 613.937595 200.397075 614.069735 224.74068 621.555189 247.277972 
C 629.040643 269.815263 643.498916 289.400638 662.831853 303.191907 
L 727.919446 211.950533 
L 727.919446 99.872956 
z
" style="fill: #283e4b; opacity: 0.5; stroke: #283e4b; stroke-linejoin: miter"/>
   </g>
   <g id="patch_33">
    <path d="M 662.831853 303.191907 
C 671.856891 309.629973 681.787413 314.693506 692.298631 318.216899 
C 702.80985 321.740292 713.785909 323.684709 724.867826 323.986557 
L 727.919446 211.950533 
L 662.831853 303.191907 
z
" style="fill: #4c4000; opacity: 0.5; stroke: #4c4000; stroke-linejoin: miter"/>
   </g>
   <g id="patch_34">
    <path d="M 724.867826 323.986557 
C 743.756949 324.501056 762.472945 320.230274 779.269123 311.572788 
C 796.0653 302.915302 810.402375 290.149082 820.942323 274.465551 
L 727.919446 211.950533 
L 724.867826 323.986557 
z
" style="fill: #423042; opacity: 0.5; stroke: #423042; stroke-linejoin: miter"/>
   </g>
   <g id="patch_35">
    <path d="M 820.942323 274.465551 
C 832.27624 257.600585 838.813222 237.966647 839.850807 217.673589 
C 840.888393 197.380532 836.388034 177.182254 826.833338 159.249252 
C 817.278642 141.31625 803.024572 126.314746 785.602861 115.856794 
C 768.181151 105.398841 748.239028 99.872959 727.919462 99.872956 
L 727.919446 211.950533 
L 820.942323 274.465551 
z
" style="fill: #4b2622; opacity: 0.5; stroke: #4b2622; stroke-linejoin: miter"/>
   </g>
   <g id="patch_36">
    <path d="M 730.160997 97.631405 
C 706.413123 97.631405 683.268818 105.179233 664.086737 119.179565 
C 644.904655 133.179897 630.65985 152.921074 623.419499 175.538299 
C 616.179147 198.155524 616.311286 222.499128 623.79674 245.03642 
C 631.282195 267.573712 645.740468 287.159086 665.073405 300.950355 
L 730.160997 209.708981 
L 730.160997 97.631405 
z
" style="fill: #87cefa"/>
   </g>
   <g id="patch_37">
    <path d="M 665.073405 300.950355 
C 674.098443 307.388421 684.028964 312.451955 694.540183 315.975348 
C 705.051401 319.498741 716.02746 321.443158 727.109378 321.745005 
L 730.160997 209.708981 
L 665.073405 300.950355 
z
" style="fill: #ffd700"/>
   </g>
   <g id="patch_38">
    <path d="M 727.109378 321.745005 
C 745.9985 322.259504 764.714496 317.988723 781.510674 309.331237 
C 798.306852 300.67375 812.643927 287.90753 823.183874 272.223999 
L 730.160997 209.708981 
L 727.109378 321.745005 
z
" style="fill: #dda0dd"/>
   </g>
   <g id="patch_39">
    <path d="M 823.183874 272.223999 
C 834.517792 255.359033 841.054774 235.725095 842.092359 215.432038 
C 843.129944 195.13898 838.629586 174.940702 829.07489 157.007701 
C 819.520194 139.074699 805.266123 124.073195 787.844413 113.615242 
C 770.422703 103.15729 750.480579 97.631408 730.161013 97.631405 
L 730.160997 209.708981 
L 823.183874 272.223999 
z
" style="fill: #fa8072"/>
   </g>
   <g id="matplotlib.axis_5"/>
   <g id="matplotlib.axis_6"/>
   <g id="text_58">
    <!-- echarts.min -->
    <g transform="translate(541.474724 175.432481)scale(0.12 -0.12)">
     <defs>
      <path id="DejaVuSans-2e" d="M 684 794 
L 1344 794 
L 1344 0 
L 684 0 
L 684 794 
z
" transform="scale(0.015625)"/>
     </defs>
     <use xlink:href="#DejaVuSans-65"/>
     <use xlink:href="#DejaVuSans-63" x="61.523438"/>
     <use xlink:href="#DejaVuSans-68" x="116.503906"/>
     <use xlink:href="#DejaVuSans-61" x="179.882812"/>
     <use xlink:href="#DejaVuSans-72" x="241.162109"/>
     <use xlink:href="#DejaVuSans-74" x="282.275391"/>
     <use xlink:href="#DejaVuSans-73" x="321.484375"/>
     <use xlink:href="#DejaVuSans-2e" x="373.583984"/>
     <use xlink:href="#DejaVuSans-6d" x="405.371094"/>
     <use xlink:href="#DejaVuSans-69" x="502.783203"/>
     <use xlink:href="#DejaVuSans-6e" x="530.566406"/>
    </g>
   </g>
   <g id="text_59">
    <!-- 40.1% -->
    <g transform="translate(643.879067 193.069697)scale(0.14 -0.14)">
     <defs>
      <path id="DejaVuSans-25" d="M 4653 2053 
Q 4381 2053 4226 1822 
Q 4072 1591 4072 1178 
Q 4072 772 4226 539 
Q 4381 306 4653 306 
Q 4919 306 5073 539 
Q 5228 772 5228 1178 
Q 5228 1588 5073 1820 
Q 4919 2053 4653 2053 
z
M 4653 2450 
Q 5147 2450 5437 2106 
Q 5728 1763 5728 1178 
Q 5728 594 5436 251 
Q 5144 -91 4653 -91 
Q 4153 -91 3862 251 
Q 3572 594 3572 1178 
Q 3572 1766 3864 2108 
Q 4156 2450 4653 2450 
z
M 1428 4353 
Q 1159 4353 1004 4120 
Q 850 3888 850 3481 
Q 850 3069 1003 2837 
Q 1156 2606 1428 2606 
Q 1700 2606 1854 2837 
Q 2009 3069 2009 3481 
Q 2009 3884 1853 4118 
Q 1697 4353 1428 4353 
z
M 4250 4750 
L 4750 4750 
L 1831 -91 
L 1331 -91 
L 4250 4750 
z
M 1428 4750 
Q 1922 4750 2215 4408 
Q 2509 4066 2509 3481 
Q 2509 2891 2217 2550 
Q 1925 2209 1428 2209 
Q 931 2209 642 2551 
Q 353 2894 353 3481 
Q 353 4063 643 4406 
Q 934 4750 1428 4750 
z
" transform="scale(0.015625)"/>
     </defs>
     <use xlink:href="#DejaVuSans-34"/>
     <use xlink:href="#DejaVuSans-30" x="63.623047"/>
     <use xlink:href="#DejaVuSans-2e" x="127.246094"/>
     <use xlink:href="#DejaVuSans-31" x="159.033203"/>
     <use xlink:href="#DejaVuSans-25" x="222.65625"/>
    </g>
   </g>
   <g id="text_60">
    <!-- echarts.simple.min -->
    <g transform="translate(576.284351 329.913234)scale(0.12 -0.12)">
     <use xlink:href="#DejaVuSans-65"/>
     <use xlink:href="#DejaVuSans-63" x="61.523438"/>
     <use xlink:href="#DejaVuSans-68" x="116.503906"/>
     <use xlink:href="#DejaVuSans-61" x="179.882812"/>
     <use xlink:href="#DejaVuSans-72" x="241.162109"/>
     <use xlink:href="#DejaVuSans-74" x="282.275391"/>
     <use xlink:href="#DejaVuSans-73" x="321.484375"/>
     <use xlink:href="#DejaVuSans-2e" x="373.583984"/>
     <use xlink:href="#DejaVuSans-73" x="405.371094"/>
     <use xlink:href="#DejaVuSans-69" x="457.470703"/>
     <use xlink:href="#DejaVuSans-6d" x="485.253906"/>
     <use xlink:href="#DejaVuSans-70" x="582.666016"/>
     <use xlink:href="#DejaVuSans-6c" x="646.142578"/>
     <use xlink:href="#DejaVuSans-65" x="673.925781"/>
     <use xlink:href="#DejaVuSans-2e" x="735.449219"/>
     <use xlink:href="#DejaVuSans-6d" x="767.236328"/>
     <use xlink:href="#DejaVuSans-69" x="864.648438"/>
     <use xlink:href="#DejaVuSans-6e" x="892.431641"/>
    </g>
   </g>
   <g id="text_61">
    <!-- 9.4% -->
    <g transform="translate(691.005227 277.331926)scale(0.14 -0.14)">
     <use xlink:href="#DejaVuSans-39"/>
     <use xlink:href="#DejaVuSans-2e" x="63.623047"/>
     <use xlink:href="#DejaVuSans-34" x="95.410156"/>
     <use xlink:href="#DejaVuSans-25" x="159.033203"/>
    </g>
   </g>
   <g id="text_62">
    <!-- echarts.common.min -->
    <g transform="translate(786.645642 322.604712)scale(0.12 -0.12)">
     <use xlink:href="#DejaVuSans-65"/>
     <use xlink:href="#DejaVuSans-63" x="61.523438"/>
     <use xlink:href="#DejaVuSans-68" x="116.503906"/>
     <use xlink:href="#DejaVuSans-61" x="179.882812"/>
     <use xlink:href="#DejaVuSans-72" x="241.162109"/>
     <use xlink:href="#DejaVuSans-74" x="282.275391"/>
     <use xlink:href="#DejaVuSans-73" x="321.484375"/>
     <use xlink:href="#DejaVuSans-2e" x="373.583984"/>
     <use xlink:href="#DejaVuSans-63" x="405.371094"/>
     <use xlink:href="#DejaVuSans-6f" x="460.351562"/>
     <use xlink:href="#DejaVuSans-6d" x="521.533203"/>
     <use xlink:href="#DejaVuSans-6d" x="618.945312"/>
     <use xlink:href="#DejaVuSans-6f" x="716.357422"/>
     <use xlink:href="#DejaVuSans-6e" x="777.539062"/>
     <use xlink:href="#DejaVuSans-2e" x="840.917969"/>
     <use xlink:href="#DejaVuSans-6d" x="872.705078"/>
     <use xlink:href="#DejaVuSans-69" x="970.117188"/>
     <use xlink:href="#DejaVuSans-6e" x="997.900391"/>
    </g>
   </g>
   <g id="text_63">
    <!-- 16.0% -->
    <g transform="translate(738.733772 273.345459)scale(0.14 -0.14)">
     <use xlink:href="#DejaVuSans-31"/>
     <use xlink:href="#DejaVuSans-36" x="63.623047"/>
     <use xlink:href="#DejaVuSans-2e" x="127.246094"/>
     <use xlink:href="#DejaVuSans-30" x="159.033203"/>
     <use xlink:href="#DejaVuSans-25" x="222.65625"/>
    </g>
   </g>
   <g id="text_64">
    <!-- echarts -->
    <g transform="translate(838.966279 155.048823)scale(0.12 -0.12)">
     <use xlink:href="#DejaVuSans-65"/>
     <use xlink:href="#DejaVuSans-63" x="61.523438"/>
     <use xlink:href="#DejaVuSans-68" x="116.503906"/>
     <use xlink:href="#DejaVuSans-61" x="179.882812"/>
     <use xlink:href="#DejaVuSans-72" x="241.162109"/>
     <use xlink:href="#DejaVuSans-74" x="282.275391"/>
     <use xlink:href="#DejaVuSans-73" x="321.484375"/>
    </g>
   </g>
   <g id="text_65">
    <!-- 34.4% -->
    <g transform="translate(767.272302 181.951338)scale(0.14 -0.14)">
     <use xlink:href="#DejaVuSans-33"/>
     <use xlink:href="#DejaVuSans-34" x="63.623047"/>
     <use xlink:href="#DejaVuSans-2e" x="127.246094"/>
     <use xlink:href="#DejaVuSans-34" x="159.033203"/>
     <use xlink:href="#DejaVuSans-25" x="222.65625"/>
    </g>
   </g>
   <g id="text_66">
    <!-- Download of each version -->
    <g transform="translate(620.769545 80.4)scale(0.168 -0.168)">
     <defs>
      <path id="DejaVuSans-44" d="M 1259 4147 
L 1259 519 
L 2022 519 
Q 2988 519 3436 956 
Q 3884 1394 3884 2338 
Q 3884 3275 3436 3711 
Q 2988 4147 2022 4147 
L 1259 4147 
z
M 628 4666 
L 1925 4666 
Q 3281 4666 3915 4102 
Q 4550 3538 4550 2338 
Q 4550 1131 3912 565 
Q 3275 0 1925 0 
L 628 0 
L 628 4666 
z
" transform="scale(0.015625)"/>
      <path id="DejaVuSans-77" d="M 269 3500 
L 844 3500 
L 1563 769 
L 2278 3500 
L 2956 3500 
L 3675 769 
L 4391 3500 
L 4966 3500 
L 4050 0 
L 3372 0 
L 2619 2869 
L 1863 0 
L 1184 0 
L 269 3500 
z
" transform="scale(0.015625)"/>
     </defs>
     <use xlink:href="#DejaVuSans-44"/>
     <use xlink:href="#DejaVuSans-6f" x="77.001953"/>
     <use xlink:href="#DejaVuSans-77" x="138.183594"/>
     <use xlink:href="#DejaVuSans-6e" x="219.970703"/>
     <use xlink:href="#DejaVuSans-6c" x="283.349609"/>
     <use xlink:href="#DejaVuSans-6f" x="311.132812"/>
     <use xlink:href="#DejaVuSans-61" x="372.314453"/>
     <use xlink:href="#DejaVuSans-64" x="433.59375"/>
     <use xlink:href="#DejaVuSans-20" x="497.070312"/>
     <use xlink:href="#DejaVuSans-6f" x="528.857422"/>
     <use xlink:href="#DejaVuSans-66" x="590.039062"/>
     <use xlink:href="#DejaVuSans-20" x="625.244141"/>
     <use xlink:href="#DejaVuSans-65" x="657.03125"/>
     <use xlink:href="#DejaVuSans-61" x="718.554688"/>
     <use xlink:href="#DejaVuSans-63" x="779.833984"/>
     <use xlink:href="#DejaVuSans-68" x="834.814453"/>
     <use xlink:href="#DejaVuSans-20" x="898.193359"/>
     <use xlink:href="#DejaVuSans-76" x="929.980469"/>
     <use xlink:href="#DejaVuSans-65" x="989.160156"/>
     <use xlink:href="#DejaVuSans-72" x="1050.683594"/>
     <use xlink:href="#DejaVuSans-73" x="1091.796875"/>
     <use xlink:href="#DejaVuSans-69" x="1143.896484"/>
     <use xlink:href="#DejaVuSans-6f" x="1171.679688"/>
     <use xlink:href="#DejaVuSans-6e" x="1232.861328"/>
    </g>
   </g>
  </g>
  <g id="axes_4">
   <g id="patch_40">
    <path d="M 726.008835 396.38574 
C 705.075387 396.38574 684.553389 402.240909 666.771481 413.28686 
C 648.989574 424.33281 634.646769 440.135321 625.370551 458.901275 
L 726.008835 508.647887 
L 726.008835 396.38574 
z
" style="fill: #283e4b; opacity: 0.5; stroke: #283e4b; stroke-linejoin: miter"/>
   </g>
   <g id="patch_41">
    <path d="M 625.370551 458.901275 
C 620.010172 469.745417 616.437603 481.385019 614.79126 493.369119 
C 613.144917 505.353218 613.44634 517.525019 615.68385 529.412938 
L 726.008835 508.647887 
L 625.370551 458.901275 
z
" style="fill: #4c4000; opacity: 0.5; stroke: #4c4000; stroke-linejoin: miter"/>
   </g>
   <g id="patch_42">
    <path d="M 615.68385 529.412938 
C 619.590338 550.168157 629.27562 569.405723 643.621727 584.905045 
C 657.967834 600.404367 676.400686 611.545219 696.792582 617.041615 
L 726.008835 508.647887 
L 615.68385 529.412938 
z
" style="fill: #423042; opacity: 0.5; stroke: #423042; stroke-linejoin: miter"/>
   </g>
   <g id="patch_43">
    <path d="M 696.792582 617.041615 
C 705.888828 619.493401 715.257632 620.790449 724.677849 620.902144 
C 734.098066 621.013838 743.494989 619.939293 752.646812 617.703872 
L 726.008835 508.647887 
L 696.792582 617.041615 
z
" style="fill: #4b2622; opacity: 0.5; stroke: #4b2622; stroke-linejoin: miter"/>
   </g>
   <g id="patch_44">
    <path d="M 752.646812 617.703872 
C 780.596795 610.876819 804.879813 593.559422 820.439182 569.357846 
C 835.998552 545.156271 841.673688 515.875731 836.282803 487.613591 
L 726.008835 508.647887 
L 752.646812 617.703872 
z
" style="fill: #4c443b; opacity: 0.5; stroke: #4c443b; stroke-linejoin: miter"/>
   </g>
   <g id="patch_45">
    <path d="M 836.282803 487.613591 
C 831.389107 461.958003 817.69228 438.797382 797.56802 422.148912 
C 777.443759 405.500441 752.126973 396.385739 726.00883 396.38574 
L 726.008835 508.647887 
L 836.282803 487.613591 
z
" style="fill: #2e3e0f; opacity: 0.5; stroke: #2e3e0f; stroke-linejoin: miter"/>
   </g>
   <g id="patch_46">
    <path d="M 728.254078 394.140497 
C 707.32063 394.140497 686.798632 399.995666 669.016724 411.041617 
C 651.234816 422.087567 636.892012 437.890078 627.615794 456.656032 
L 728.254078 506.402644 
L 728.254078 394.140497 
z
" style="fill: #87cefa"/>
   </g>
   <g id="patch_47">
    <path d="M 627.615794 456.656032 
C 622.255415 467.500174 618.682846 479.139776 617.036503 491.123876 
C 615.39016 503.107975 615.691583 515.279776 617.929093 527.167695 
L 728.254078 506.402644 
L 627.615794 456.656032 
z
" style="fill: #ffd700"/>
   </g>
   <g id="patch_48">
    <path d="M 617.929093 527.167695 
C 621.835581 547.922914 631.520863 567.16048 645.86697 582.659802 
C 660.213077 598.159124 678.645929 609.299976 699.037824 614.796372 
L 728.254078 506.402644 
L 617.929093 527.167695 
z
" style="fill: #dda0dd"/>
   </g>
   <g id="patch_49">
    <path d="M 699.037824 614.796372 
C 708.134071 617.248158 717.502875 618.545206 726.923092 618.656901 
C 736.343309 618.768595 745.740232 617.69405 754.892055 615.458629 
L 728.254078 506.402644 
L 699.037824 614.796372 
z
" style="fill: #fa8072"/>
   </g>
   <g id="patch_50">
    <path d="M 754.892055 615.458629 
C 782.842038 608.631576 807.125056 591.314179 822.684425 567.112603 
C 838.243794 542.911028 843.91893 513.630488 838.528046 485.368348 
L 728.254078 506.402644 
L 754.892055 615.458629 
z
" style="fill: #ffe4c4"/>
   </g>
   <g id="patch_51">
    <path d="M 838.528046 485.368348 
C 833.63435 459.71276 819.937523 436.552139 799.813262 419.903669 
C 779.689002 403.255198 754.372216 394.140496 728.254073 394.140497 
L 728.254078 506.402644 
L 838.528046 485.368348 
z
" style="fill: #9acd32"/>
   </g>
   <g id="matplotlib.axis_7"/>
   <g id="matplotlib.axis_8"/>
   <g id="text_67">
    <!-- dark -->
    <g transform="translate(636.239239 404.816764)scale(0.12 -0.12)">
     <use xlink:href="#DejaVuSans-64"/>
     <use xlink:href="#DejaVuSans-61" x="63.476562"/>
     <use xlink:href="#DejaVuSans-72" x="124.755859"/>
     <use xlink:href="#DejaVuSans-6b" x="165.869141"/>
    </g>
   </g>
   <g id="text_68">
    <!-- 17.7% -->
    <g transform="translate(670.474634 453.049153)scale(0.14 -0.14)">
     <use xlink:href="#DejaVuSans-31"/>
     <use xlink:href="#DejaVuSans-37" x="63.623047"/>
     <use xlink:href="#DejaVuSans-2e" x="127.246094"/>
     <use xlink:href="#DejaVuSans-37" x="159.033203"/>
     <use xlink:href="#DejaVuSans-25" x="222.65625"/>
    </g>
   </g>
   <g id="text_69">
    <!-- infographic -->
    <g transform="translate(538.349121 492.907249)scale(0.12 -0.12)">
     <use xlink:href="#DejaVuSans-69"/>
     <use xlink:href="#DejaVuSans-6e" x="27.783203"/>
     <use xlink:href="#DejaVuSans-66" x="91.162109"/>
     <use xlink:href="#DejaVuSans-6f" x="126.367188"/>
     <use xlink:href="#DejaVuSans-67" x="187.548828"/>
     <use xlink:href="#DejaVuSans-72" x="251.025391"/>
     <use xlink:href="#DejaVuSans-61" x="292.138672"/>
     <use xlink:href="#DejaVuSans-70" x="353.417969"/>
     <use xlink:href="#DejaVuSans-68" x="416.894531"/>
     <use xlink:href="#DejaVuSans-69" x="480.273438"/>
     <use xlink:href="#DejaVuSans-63" x="508.056641"/>
    </g>
   </g>
   <g id="text_70">
    <!-- 10.3% -->
    <g transform="translate(639.286502 501.098508)scale(0.14 -0.14)">
     <use xlink:href="#DejaVuSans-31"/>
     <use xlink:href="#DejaVuSans-30" x="63.623047"/>
     <use xlink:href="#DejaVuSans-2e" x="127.246094"/>
     <use xlink:href="#DejaVuSans-33" x="159.033203"/>
     <use xlink:href="#DejaVuSans-25" x="222.65625"/>
    </g>
   </g>
   <g id="text_71">
    <!-- shine -->
    <g transform="translate(605.449509 593.596768)scale(0.12 -0.12)">
     <use xlink:href="#DejaVuSans-73"/>
     <use xlink:href="#DejaVuSans-68" x="52.099609"/>
     <use xlink:href="#DejaVuSans-69" x="115.478516"/>
     <use xlink:href="#DejaVuSans-6e" x="143.261719"/>
     <use xlink:href="#DejaVuSans-65" x="206.640625"/>
    </g>
   </g>
   <g id="text_72">
    <!-- 17.8% -->
    <g transform="translate(656.584782 556.020064)scale(0.14 -0.14)">
     <use xlink:href="#DejaVuSans-31"/>
     <use xlink:href="#DejaVuSans-37" x="63.623047"/>
     <use xlink:href="#DejaVuSans-2e" x="127.246094"/>
     <use xlink:href="#DejaVuSans-38" x="159.033203"/>
     <use xlink:href="#DejaVuSans-25" x="222.65625"/>
    </g>
   </g>
   <g id="text_73">
    <!-- roma -->
    <g transform="translate(695.741868 633.193576)scale(0.12 -0.12)">
     <use xlink:href="#DejaVuSans-72"/>
     <use xlink:href="#DejaVuSans-6f" x="38.863281"/>
     <use xlink:href="#DejaVuSans-6d" x="100.044922"/>
     <use xlink:href="#DejaVuSans-61" x="197.457031"/>
    </g>
   </g>
   <g id="text_74">
    <!-- 8.0% -->
    <g transform="translate(709.672205 577.618323)scale(0.14 -0.14)">
     <use xlink:href="#DejaVuSans-38"/>
     <use xlink:href="#DejaVuSans-2e" x="63.623047"/>
     <use xlink:href="#DejaVuSans-30" x="95.410156"/>
     <use xlink:href="#DejaVuSans-25" x="159.033203"/>
    </g>
   </g>
   <g id="text_75">
    <!-- macarons -->
    <g transform="translate(832.12746 576.494849)scale(0.12 -0.12)">
     <use xlink:href="#DejaVuSans-6d"/>
     <use xlink:href="#DejaVuSans-61" x="97.412109"/>
     <use xlink:href="#DejaVuSans-63" x="158.691406"/>
     <use xlink:href="#DejaVuSans-61" x="213.671875"/>
     <use xlink:href="#DejaVuSans-72" x="274.951172"/>
     <use xlink:href="#DejaVuSans-6f" x="313.814453"/>
     <use xlink:href="#DejaVuSans-6e" x="374.996094"/>
     <use xlink:href="#DejaVuSans-73" x="438.375"/>
    </g>
   </g>
   <g id="text_76">
    <!-- 24.2% -->
    <g transform="translate(762.675255 546.691745)scale(0.14 -0.14)">
     <use xlink:href="#DejaVuSans-32"/>
     <use xlink:href="#DejaVuSans-34" x="63.623047"/>
     <use xlink:href="#DejaVuSans-2e" x="127.246094"/>
     <use xlink:href="#DejaVuSans-32" x="159.033203"/>
     <use xlink:href="#DejaVuSans-25" x="222.65625"/>
    </g>
   </g>
   <g id="text_77">
    <!-- vintage -->
    <g transform="translate(806.969181 414.565021)scale(0.12 -0.12)">
     <use xlink:href="#DejaVuSans-76"/>
     <use xlink:href="#DejaVuSans-69" x="59.179688"/>
     <use xlink:href="#DejaVuSans-6e" x="86.962891"/>
     <use xlink:href="#DejaVuSans-74" x="150.341797"/>
     <use xlink:href="#DejaVuSans-61" x="189.550781"/>
     <use xlink:href="#DejaVuSans-67" x="250.830078"/>
     <use xlink:href="#DejaVuSans-65" x="314.306641"/>
    </g>
   </g>
   <g id="text_78">
    <!-- 22.0% -->
    <g transform="translate(748.952557 458.366384)scale(0.14 -0.14)">
     <use xlink:href="#DejaVuSans-32"/>
     <use xlink:href="#DejaVuSans-32" x="63.623047"/>
     <use xlink:href="#DejaVuSans-2e" x="127.246094"/>
     <use xlink:href="#DejaVuSans-30" x="159.033203"/>
     <use xlink:href="#DejaVuSans-25" x="222.65625"/>
    </g>
   </g>
   <g id="text_79">
    <!-- Download of each subject -->
    <g transform="translate(621.089795 376.909091)scale(0.168 -0.168)">
     <defs>
      <path id="DejaVuSans-6a" d="M 603 3500 
L 1178 3500 
L 1178 -63 
Q 1178 -731 923 -1031 
Q 669 -1331 103 -1331 
L -116 -1331 
L -116 -844 
L 38 -844 
Q 366 -844 484 -692 
Q 603 -541 603 -63 
L 603 3500 
z
M 603 4863 
L 1178 4863 
L 1178 4134 
L 603 4134 
L 603 4863 
z
" transform="scale(0.015625)"/>
     </defs>
     <use xlink:href="#DejaVuSans-44"/>
     <use xlink:href="#DejaVuSans-6f" x="77.001953"/>
     <use xlink:href="#DejaVuSans-77" x="138.183594"/>
     <use xlink:href="#DejaVuSans-6e" x="219.970703"/>
     <use xlink:href="#DejaVuSans-6c" x="283.349609"/>
     <use xlink:href="#DejaVuSans-6f" x="311.132812"/>
     <use xlink:href="#DejaVuSans-61" x="372.314453"/>
     <use xlink:href="#DejaVuSans-64" x="433.59375"/>
     <use xlink:href="#DejaVuSans-20" x="497.070312"/>
     <use xlink:href="#DejaVuSans-6f" x="528.857422"/>
     <use xlink:href="#DejaVuSans-66" x="590.039062"/>
     <use xlink:href="#DejaVuSans-20" x="625.244141"/>
     <use xlink:href="#DejaVuSans-65" x="657.03125"/>
     <use xlink:href="#DejaVuSans-61" x="718.554688"/>
     <use xlink:href="#DejaVuSans-63" x="779.833984"/>
     <use xlink:href="#DejaVuSans-68" x="834.814453"/>
     <use xlink:href="#DejaVuSans-20" x="898.193359"/>
     <use xlink:href="#DejaVuSans-73" x="929.980469"/>
     <use xlink:href="#DejaVuSans-75" x="982.080078"/>
     <use xlink:href="#DejaVuSans-62" x="1045.458984"/>
     <use xlink:href="#DejaVuSans-6a" x="1108.935547"/>
     <use xlink:href="#DejaVuSans-65" x="1136.71875"/>
     <use xlink:href="#DejaVuSans-63" x="1198.242188"/>
     <use xlink:href="#DejaVuSans-74" x="1253.222656"/>
    </g>
   </g>
  </g>
 </g>
 <defs>
  <clipPath id="p4268cac49f">
   <rect x="126" y="86.4" width="355.090909" height="247.090909"/>
  </clipPath>
  <clipPath id="pf11a596194">
   <rect x="126" y="382.909091" width="355.090909" height="247.090909"/>
  </clipPath>
 </defs>
</svg>
